<svg version="1.1" id="Icons" xmlns="http://www.w3.org/2000/svg" xmlns:xlink="http://www.w3.org/1999/xlink" viewBox="0 0 32 32" xml:space="preserve" width="64px" height="64px" fill="#000000"><g id="SVGRepo_bgCarrier" stroke-width="0"></g><g id="SVGRepo_tracerCarrier" stroke-linecap="round" stroke-linejoin="round"></g><g id="SVGRepo_iconCarrier"> <style type="text/css"> .st0{fill:none;stroke:#ffffff;stroke-width:2;stroke-linecap:round;stroke-linejoin:round;stroke-miterlimit:10;} </style> <path class="st0" d="M23,7h6v2.7c0,4-3.2,7.3-7.3,7.3h0"></path> <path class="st0" d="M9,7H3v2.7c0,4,3.2,7.3,7.3,7.3h0"></path> <path class="st0" d="M22,29H10v-3c0-1.1,0.9-2,2-2h8c1.1,0,2,0.9,2,2V29z"></path> <path class="st0" d="M18,24v-4.3c2.9-0.9,5-3.5,5-6.7V5H9v8c0,3.2,2.1,5.8,5,6.7V24"></path> </g></svg>